<svg width="31" height="30" viewBox="0 0 31 30" fill="none" xmlns="http://www.w3.org/2000/svg">
<path d="M26.2625 18.75H3.76245C2.72729 18.75 1.84351 18.3838 1.11108 17.6514C0.378662 16.9189 0.0124512 16.0352 0.0124512 15C0.0124512 13.9648 0.378662 13.0811 1.11108 12.3486C1.84351 11.6162 2.72729 11.25 3.76245 11.25H26.2625C27.2976 11.25 28.1814 11.6162 28.9138 12.3486C29.6462 13.0811 30.0125 13.9648 30.0125 15C30.0125 16.0352 29.6462 16.9189 28.9138 17.6514C28.1814 18.3838 27.2976 18.75 26.2625 18.75ZM26.2625 7.5H3.76245C2.72729 7.5 1.84351 7.13379 1.11108 6.40137C0.378662 5.66895 0.0124512 4.78516 0.0124512 3.75C0.0124512 2.71484 0.378662 1.83105 1.11108 1.09863C1.84351 0.366211 2.72729 0 3.76245 0H26.2625C27.2976 0 28.1814 0.366211 28.9138 1.09863C29.6462 1.83105 30.0125 2.71484 30.0125 3.75C30.0125 4.78516 29.6462 5.66895 28.9138 6.40137C28.1814 7.13379 27.2976 7.5 26.2625 7.5ZM3.76245 22.5H26.2625C27.2976 22.5 28.1814 22.8662 28.9138 23.5986C29.6462 24.3311 30.0125 25.2148 30.0125 26.25C30.0125 27.2852 29.6462 28.1689 28.9138 28.9014C28.1814 29.6338 27.2976 30 26.2625 30H3.76245C2.72729 30 1.84351 29.6338 1.11108 28.9014C0.378662 28.1689 0.0124512 27.2852 0.0124512 26.25C0.0124512 25.2148 0.378662 24.3311 1.11108 23.5986C1.84351 22.8662 2.72729 22.5 3.76245 22.5Z" fill="white"/>
</svg>
